<svg id="Слой_2" data-name="Слой 2" xmlns="http://www.w3.org/2000/svg" viewBox="0 0 26.55 26.7"><polyline points="0.05 1 4.41 1.22 10.01 13.88 25.48 12.89 24.87 4.12 5.89 3.94" fill="none" stroke="#1d1d1b" stroke-miterlimit="10" stroke-width="2"/><path d="M10,13.87a7.23,7.23,0,0,0-2.83,1,2.13,2.13,0,0,0-.57,3A2.71,2.71,0,0,0,8,18.65c4.14.6,17.44.14,17.44.14" fill="none" stroke="#1d1d1b" stroke-miterlimit="10" stroke-width="2"/><circle cx="22.9" cy="23.57" r="2.13" fill="none" stroke="#1d1d1b" stroke-miterlimit="10" stroke-width="2"/><circle cx="8.94" cy="23.55" r="2.13" fill="none" stroke="#1d1d1b" stroke-miterlimit="10" stroke-width="2"/><line x1="8.04" y1="8.95" x2="25.19" y2="8.74" fill="none" stroke="#1d1d1b" stroke-miterlimit="10" stroke-width="0.75"/><line x1="12.19" y1="4.44" x2="15.43" y2="13.53" fill="none"/><line x1="12.13" y1="4.26" x2="15.36" y2="13.35" fill="none" stroke="#1d1d1b" stroke-miterlimit="10" stroke-width="0.75"/><line x1="17.8" y1="4.05" x2="21.03" y2="13.39" fill="none" stroke="#1d1d1b" stroke-miterlimit="10" stroke-width="0.75"/></svg>