<svg id="Layer_1" data-name="Layer 1" xmlns="http://www.w3.org/2000/svg" viewBox="0 0 459 458"><ellipse cx="229.5" cy="229" rx="229.5" ry="229"/><circle cx="229.48" cy="228.02" r="153.25" fill="#fff"/><path d="M172.6,106.8a133.65,133.65,0,0,0-74,93.6c3.6,0,59.6.8,124-16.4C199.4,142.8,174.6,109.2,172.6,106.8Z"/><path d="M233.8,204.8C164.6,225.6,98.2,224,95.8,224v4.4A134.15,134.15,0,0,0,130.2,318s36.8-65.6,109.2-88.8c1.6-.4,3.6-1.2,5.2-1.6C241.4,220,237.4,212.4,233.8,204.8Z"/><path d="M230.2,93.6a136.67,136.67,0,0,0-31.6,3.6A704.49,704.49,0,0,1,249,175.6c50.4-18.8,69.6-48,70-48.4A134.18,134.18,0,0,0,230.2,93.6Z"/><path d="M279,243.6c17.6,48.4,24.8,87.6,26,96a135.5,135.5,0,0,0,57.6-90C360.2,248.4,322.6,236.4,279,243.6Z"/><path d="M253.8,249.6a1.4,1.4,0,0,1-.8.4c-79.2,27.6-105.2,83.2-105.2,84a133.28,133.28,0,0,0,134.8,17.6A543,543,0,0,0,253.8,249.6Z"/><path d="M333.8,142.8c0,.4-21.6,31.6-74.8,53.2,3.2,6.4,6,12.8,8.8,19.6.8,2.4,2,4.8,2.8,6.8,46-6,91.6,4,93.6,4.4A134,134,0,0,0,333.8,142.8Z"/></svg>