<svg xmlns="http://www.w3.org/2000/svg">
  <defs>
    <symbol viewBox="0 0 32 32" id="icon-behance">
      <path
        d="M1 6.75v18.5h8.938c.828 0 6.53-.168 6.53-5.375 0-3.254-2.238-4.36-3.374-4.688.836-.394 2.5-1.332 2.5-3.843 0-1.399-.2-4.594-5.906-4.594zm20.375 1.719v1.687h6.906V8.47zM5.062 9.906h3.813c.36 0 2.781-.191 2.781 2.125 0 1.98-1.75 2.188-2.469 2.188H5.064zM25 11.687c-5.223 0-6.313 4.536-6.313 6.5 0 5.833 4.782 6.5 6.313 6.5 4.129 0 5.3-2.671 5.781-4.156h-3c-.117.383-.992 1.625-2.656 1.625-2.79 0-3.031-2.18-3.031-3.156h8.875c.18-3.375-1.297-7.313-5.969-7.313zm-.094 2.532c.832 0 1.504.242 1.907.687.402.45.699 1.106.78 1.969h-5.5c.016-.238.071-.512.157-.813.086-.308.219-.601.438-.875.218-.269.523-.503.875-.687.359-.188.804-.281 1.343-.281zM5.063 17h4.406c.875 0 2.937.137 2.937 2.656 0 2.442-2.597 2.438-3 2.438H5.062z"
      />
    </symbol>
    <symbol viewBox="0 0 32 32" id="icon-facebook-f">
      <path
        d="M19.254 2C15.312 2 13 4.082 13 8.826V13H8v5h5v12h5V18h4l1-5h-5V9.672C18 7.885 18.583 7 20.26 7H23V2.205C22.526 2.141 21.145 2 19.254 2z"
      />
    </symbol>
    <symbol viewBox="0 0 50 50" id="icon-instagram-new">
      <path
        fill="black"
        d="M16 3C8.83 3 3 8.83 3 16v18c0 7.17 5.83 13 13 13h18c7.17 0 13-5.83 13-13V16c0-7.17-5.83-13-13-13H16zm21 8c1.1 0 2 .9 2 2s-.9 2-2 2-2-.9-2-2 .9-2 2-2zm-12 3c6.07 0 11 4.93 11 11s-4.93 11-11 11-11-4.93-11-11 4.93-11 11-11zm0 2c-4.96 0-9 4.04-9 9s4.04 9 9 9 9-4.04 9-9-4.04-9-9-9z"
      />
    </symbol>
    <symbol viewBox="0 0 48 48" id="icon-instagram-new-2">
      <path
        d="M16.5 5C10.166 5 5 10.166 5 16.5v15C5 37.833 10.166 43 16.5 43h15C37.833 43 43 37.833 43 31.5v-15C43 10.166 37.833 5 31.5 5h-15zm0 3h15c4.711 0 8.5 3.788 8.5 8.5v15c0 4.711-3.789 8.5-8.5 8.5h-15A8.478 8.478 0 018 31.5v-15C8 11.788 11.788 8 16.5 8zM34 12a2 2 0 10-.001 3.999A2 2 0 0034 12zm-10 2c-5.505 0-10 4.495-10 10s4.495 10 10 10 10-4.495 10-10-4.495-10-10-10zm0 3c3.883 0 7 3.117 7 7s-3.117 7-7 7-7-3.117-7-7 3.117-7 7-7z"
      />
    </symbol>
    <symbol viewBox="0 0 30 30" id="icon-pinterest">
      <path
        d="M15 3C8.373 3 3 8.373 3 15c0 5.084 3.163 9.426 7.627 11.174-.105-.949-.2-2.406.042-3.442.218-.936 1.407-5.965 1.407-5.965s-.359-.719-.359-1.781c0-1.669.967-2.914 2.171-2.914 1.024 0 1.518.769 1.518 1.69 0 1.03-.655 2.569-.994 3.995-.283 1.195.599 2.169 1.777 2.169 2.133 0 3.772-2.249 3.772-5.495 0-2.873-2.064-4.882-5.012-4.882-3.414 0-5.418 2.561-5.418 5.208 0 1.031.397 2.137.893 2.739a.359.359 0 01.083.344c-.091.379-.293 1.194-.333 1.361-.052.22-.174.266-.401.16-1.499-.698-2.436-2.889-2.436-4.649 0-3.785 2.75-7.262 7.929-7.262 4.163 0 7.398 2.966 7.398 6.931 0 4.136-2.608 7.464-6.227 7.464-1.216 0-2.359-.632-2.75-1.378 0 0-.602 2.291-.748 2.853-.271 1.042-1.002 2.349-1.492 3.146C12.57 26.812 13.763 27 15 27c6.627 0 12-5.373 12-12S21.627 3 15 3z"
      />
    </symbol>
    <symbol viewBox="0 0 30 30" id="icon-twitter">
      <path
        d="M28 6.937c-.957.425-1.985.711-3.064.84a5.343 5.343 0 002.345-2.951 10.696 10.696 0 01-3.388 1.295 5.334 5.334 0 00-9.089 4.864A15.143 15.143 0 013.809 5.411a5.321 5.321 0 00-.721 2.683 5.33 5.33 0 002.372 4.439 5.323 5.323 0 01-2.416-.667v.067a5.335 5.335 0 004.279 5.23 5.336 5.336 0 01-2.409.092 5.34 5.34 0 004.983 3.705 10.699 10.699 0 01-6.625 2.284c-.43 0-.855-.025-1.273-.075a15.102 15.102 0 008.177 2.396c9.812 0 15.176-8.128 15.176-15.177 0-.231-.005-.461-.015-.69A10.855 10.855 0 0028 6.937z"
      />
    </symbol>
  </defs>
</svg>
