<svg id="Слой_1" data-name="Слой 1" xmlns="http://www.w3.org/2000/svg" viewBox="0 0 19.98 15.54"><path d="M10,0l.29,2s-6.36,4.62-5,7c1.23,2.22,2.66.68,2.66.68a1.16,1.16,0,0,1,.57,1.49s-.81,4.19-3.69,4.3C1,15.68.43,13.36.43,13.36a6.76,6.76,0,0,1,.64-6.08C3.34,3.28,10,0,10,0Z" fill="#fcf8ed"/><path d="M19.68,0,20,2s-6.37,4.62-5,7c1.23,2.22,2.66.68,2.66.68a1.16,1.16,0,0,1,.57,1.49s-.81,4.19-3.69,4.3c-3.75.15-4.34-2.17-4.34-2.17a6.74,6.74,0,0,1,.63-6.08C13.05,3.28,19.68,0,19.68,0Z" fill="#fcf8ed"/></svg>