<svg xmlns="http://www.w3.org/2000/svg" xmlns:xlink="http://www.w3.org/1999/xlink" style="width: 0; height: 0; visibility: hidden; position: absolute;" aria-hidden="true"><symbol  viewBox='0 0 46.9 28.9' id='behance'>
    <path d="M0 0v29h14c1.3 0 10.2-.4 10.2-8.5a7.1 7.1 0 00-5.3-7.3 6.2 6.2 0 004-6C22.7 5 22.4 0 13.5 0zm31.8 2.7v2.6h10.8V2.7zM6.3 4.9h6c.6 0 4.4-.3 4.4 3.3 0 3.2-2.7 3.5-3.9 3.5H6.3zm31.2 2.8c-8.2 0-9.9 7.1-9.9 10.2 0 9.1 7.5 10.1 9.9 10.1 6.5 0 8.3-4.2 9-6.5h-4.6a4.5 4.5 0 01-4.2 2.5c-4.4 0-4.7-3.4-4.7-4.9h13.8c.3-5.2-2-11.4-9.3-11.4zm-.1 4a4 4 0 013 1 5.3 5.3 0 011.2 3.2H33a6.2 6.2 0 01.2-1.3 3.8 3.8 0 01.7-1.4 4.3 4.3 0 011.4-1 4.6 4.6 0 012-.5zM6.4 16h6.8c1.4 0 4.6.2 4.6 4.2s-4 3.8-4.7 3.8H6.3z"></path>
  </symbol><symbol  viewBox='0 0 26.6 26.7' id='cart'>
    <path fill="none" stroke="#1d1d1b" stroke-miterlimit="10" stroke-width="2" d="M0 1l4.4.2L10 14l15.5-1-.6-8.8-19-.2"></path><path d="M10 13.9a7.2 7.2 0 00-2.8 1 2.1 2.1 0 00-.6 3 2.7 2.7 0 001.4.8c4.1.5 17.4 0 17.4 0" fill="none" stroke="#1d1d1b" stroke-miterlimit="10" stroke-width="2"></path><circle cx="22.9" cy="23.6" r="2.1" fill="none" stroke="#1d1d1b" stroke-miterlimit="10" stroke-width="2"></circle><circle cx="8.9" cy="23.6" r="2.1" fill="none" stroke="#1d1d1b" stroke-miterlimit="10" stroke-width="2"></circle><path fill="none" stroke="#1d1d1b" stroke-miterlimit="10" stroke-width=".8" d="M8 8.9l17.2-.2"></path><path fill="none" d="M12.2 4.4l3.2 9.1"></path><path fill="none" stroke="#1d1d1b" stroke-miterlimit="10" stroke-width=".8" d="M12.1 4.3l3.3 9M17.8 4l3.2 9.4"></path>
  </symbol><symbol  viewBox='0 0 304.5 304.5' id='close'>
    <path d="M163.6 152.3L302.2 13.7a8 8 0 00-11.4-11.4L152.2 141 13.8 2.3A8 8 0 002.3 13.7L141 152.3 2.3 290.8a8 8 0 0011.4 11.4l138.6-138.6 138.5 138.6a8 8 0 0011.4-11.4z" data-name="cross copy"></path>
  </symbol><symbol  viewBox='0 0 400 400' id='done'>
    <path d="M200 0C89.7 0 0 89.7 0 200s89.7 200 200 200 200-89.7 200-200S310.3 0 200 0zm0 373.8A174 174 0 0126.2 200 174 174 0 01200 26.2 174 174 0 01373.8 200 174 174 0 01200 373.8z"></path><path d="M272.4 134.5L169.3 237.7 127.6 196a13.1 13.1 0 00-18.6 18.5l51 51a13 13 0 0018.6 0L290.9 153a13.1 13.1 0 10-18.5-18.6z"></path>
  </symbol><symbol  viewBox='0 0 459 458' id='dribbble'>
    <ellipse cx="229.5" cy="229" rx="229.5" ry="229"></ellipse><circle cx="229.5" cy="228" r="153.3" fill="#fff"></circle><path d="M172.6 106.8a133.7 133.7 0 00-74 93.6c3.6 0 59.6.8 124-16.4a745.3 745.3 0 00-50-77.2zm61.2 98C164.6 225.6 98.2 224 95.8 224v4.4a134.2 134.2 0 0034.4 89.6s36.8-65.6 109.2-88.8l5.2-1.6c-3.2-7.6-7.2-15.2-10.8-22.8zm-3.6-111.2a136.7 136.7 0 00-31.6 3.6 704.5 704.5 0 0150.4 78.4c50.4-18.8 69.6-48 70-48.4a134.2 134.2 0 00-88.8-33.6zm48.8 150a550.7 550.7 0 0126 96 135.5 135.5 0 0057.6-90c-2.4-1.2-40-13.2-83.6-6zm-25.2 6a1.4 1.4 0 01-.8.4c-79.2 27.6-105.2 83.2-105.2 84a133.3 133.3 0 00134.8 17.6 543 543 0 00-28.8-102zm80-106.8c0 .4-21.6 31.6-74.8 53.2a291 291 0 018.8 19.6c.8 2.4 2 4.8 2.8 6.8 46-6 91.6 4 93.6 4.4a134 134 0 00-30.4-84z"></path>
  </symbol><symbol  viewBox='0 0 24 24' id='error'>
    <path d="M12 8v5m0 3h0"></path><circle cx="12" cy="12" r="10"></circle>
  </symbol><symbol  viewBox='0 0 23.4 43.8' id='facebook'>
    <path d="M17.6 0c-6.2 0-9.8 3.3-9.8 10.7v6.5H0V25h7.8v18.8h7.8V25H22l1.5-7.8h-7.8V12c0-2.8 1-4.2 3.6-4.2h4.2V.3a47.9 47.9 0 00-5.8-.3z"></path>
  </symbol><symbol  viewBox='0 0 24 24' id='instagram'>
    <path d="M7 0a7 7 0 00-7 7v10a7 7 0 007 7h10a7 7 0 007-7V7a7 7 0 00-7-7zm12 4a1 1 0 11-1 1 1 1 0 011-1zm-7 2a6 6 0 11-6 6 6 6 0 016-6zm0 2a4 4 0 104 4 4 4 0 00-4-4z"></path>
  </symbol><symbol  viewBox='0 0 40 40' id='pinterest'>
    <path d="M20 0a20 20 0 00-7.3 38.6 19.4 19.4 0 010-5.7l2.4-10a7.1 7.1 0 01-.6-3c0-2.7 1.6-4.8 3.7-4.8a2.5 2.5 0 012.5 2.8c0 1.7-1.1 4.3-1.7 6.7a3 3 0 003 3.6c3.6 0 6.3-3.8 6.3-9.2 0-4.8-3.4-8.1-8.3-8.1a8.7 8.7 0 00-9 8.7 7.8 7.8 0 001.4 4.5.6.6 0 01.2.6L12 27c0 .3-.3.4-.6.2-2.5-1.1-4.1-4.8-4.1-7.7 0-6.3 4.6-12.1 13.2-12.1 7 0 12.3 5 12.3 11.5 0 7-4.3 12.5-10.3 12.5a5.3 5.3 0 01-4.6-2.3l-1.3 4.7a22.6 22.6 0 01-2.4 5.3A20 20 0 1020 0z"></path>
  </symbol><symbol  viewBox='0 0 24 24' id='search'>
    <path d="M10 0a10 10 0 106.3 17.7l6 6a1 1 0 101.5-1.4l-6-6A10 10 0 0010 0zm0 2a8 8 0 11-8 8 8 8 0 018-8z"></path>
  </symbol><symbol  viewBox='0 0 43.3 35.2' id='twitter'>
    <path d="M43.3 4.2a18 18 0 01-5 1.4 9 9 0 003.8-5 17.8 17.8 0 01-5.6 2.2 8.9 8.9 0 00-15.4 6 9 9 0 00.2 2A25.3 25.3 0 013 1.7a8.8 8.8 0 00-1.2 4.5 8.8 8.8 0 004 7.4 8.7 8.7 0 01-4-1.1v.1a8.9 8.9 0 007.1 8.7 9 9 0 01-2.3.3 9.2 9.2 0 01-1.7-.1 8.9 8.9 0 008.3 6.1 17.9 17.9 0 01-11 3.8 16.5 16.5 0 01-2.2 0 25.2 25.2 0 0013.6 4A25.1 25.1 0 0039 9.8v-1a18.5 18.5 0 004.4-4.6z"></path>
  </symbol></svg>