<svg id="Слой_1" data-name="Слой 1" xmlns="http://www.w3.org/2000/svg" viewBox="0 0 40 40"><path d="M20,0a20,20,0,0,0-7.29,38.62,19.36,19.36,0,0,1,.07-5.73c.36-1.56,2.35-9.95,2.35-9.95a7.14,7.14,0,0,1-.6-3c0-2.78,1.61-4.86,3.62-4.86a2.52,2.52,0,0,1,2.53,2.82c0,1.71-1.1,4.28-1.66,6.65a2.91,2.91,0,0,0,3,3.62c3.56,0,6.29-3.75,6.29-9.16,0-4.79-3.44-8.13-8.36-8.13a8.65,8.65,0,0,0-9,8.68,7.83,7.83,0,0,0,1.49,4.56.58.58,0,0,1,.14.57c-.15.63-.49,2-.55,2.27s-.29.45-.67.27c-2.5-1.17-4.06-4.82-4.06-7.75,0-6.31,4.58-12.1,13.21-12.1,6.94,0,12.33,4.94,12.33,11.55,0,6.89-4.34,12.44-10.38,12.44a5.34,5.34,0,0,1-4.58-2.3s-1,3.82-1.25,4.76a22.64,22.64,0,0,1-2.48,5.24A20,20,0,1,0,20,0Z"/></svg>