<svg id="Слой_1" data-name="Слой 1" xmlns="http://www.w3.org/2000/svg" viewBox="0 0 43.34 35.21"><path d="M43.34,4.17a17.91,17.91,0,0,1-5.11,1.4A8.91,8.91,0,0,0,42.14.65a17.81,17.81,0,0,1-5.65,2.16A8.89,8.89,0,0,0,21.11,8.89a9,9,0,0,0,.23,2A25.25,25.25,0,0,1,3,1.63,8.76,8.76,0,0,0,1.82,6.1a8.85,8.85,0,0,0,3.95,7.39,8.74,8.74,0,0,1-4-1.11v.12a8.89,8.89,0,0,0,7.13,8.71,9,9,0,0,1-2.34.31,9.18,9.18,0,0,1-1.67-.15,8.89,8.89,0,0,0,8.3,6.17,17.85,17.85,0,0,1-11,3.81A16.53,16.53,0,0,1,0,31.22a25.2,25.2,0,0,0,13.63,4C30,35.21,38.92,21.67,38.92,9.92c0-.38,0-.77,0-1.15A18.49,18.49,0,0,0,43.34,4.17Z"/></svg>