<svg id="Слой_1" data-name="Слой 1" xmlns="http://www.w3.org/2000/svg" viewBox="0 0 46.85 28.91"><path d="M0,0V28.91H14c1.3,0,10.21-.27,10.21-8.4a7.13,7.13,0,0,0-5.27-7.33,6.21,6.21,0,0,0,3.9-6C22.8,5,22.49,0,13.57,0ZM31.84,2.69V5.32H42.63V2.69ZM6.35,4.93h6c.57,0,4.35-.3,4.35,3.32,0,3.1-2.73,3.42-3.86,3.42H6.35ZM37.5,7.71c-8.16,0-9.86,7.09-9.86,10.16C27.64,27,35.11,28,37.5,28c6.45,0,8.28-4.18,9-6.5H41.85a4.52,4.52,0,0,1-4.15,2.54c-4.36,0-4.74-3.4-4.74-4.93H46.83C47.11,13.87,44.8,7.71,37.5,7.71Zm-.15,4a4,4,0,0,1,3,1.07,5.31,5.31,0,0,1,1.22,3.08H33a6.21,6.21,0,0,1,.24-1.27,3.77,3.77,0,0,1,.69-1.37,4.34,4.34,0,0,1,1.36-1.07A4.56,4.56,0,0,1,37.35,11.67ZM6.35,16h6.88c1.37,0,4.59.21,4.59,4.15S13.76,24,13.13,24H6.35Z"/></svg>